<?xml version="1.0" encoding="utf-8"?>
<!-- Generator: Adobe Illustrator 21.0.0, SVG Export Plug-In . SVG Version: 6.00 Build 0)  -->
<svg version="1.1" id="Layer_1" xmlns="http://www.w3.org/2000/svg" xmlns:xlink="http://www.w3.org/1999/xlink" x="0px" y="0px"
	 viewBox="0 0 185 185" style="enable-background:new 0 0 185 185;" xml:space="preserve">
<style type="text/css">
	.st0{fill:#EC8278;}
	.st1{fill:#B3B8BF;}
	.st2{fill:#5E1F38;}
	.st3{opacity:0.68;fill:#33252F;}
	.st4{fill:none;stroke:#E8292F;stroke-width:3;stroke-miterlimit:10;}
	.st5{fill:none;stroke:#E8292F;stroke-width:3;stroke-linecap:round;stroke-miterlimit:10;}
	.st6{fill:#EECFC4;stroke:#D90E13;stroke-width:2;stroke-miterlimit:10;}
	.st7{fill:#EECFC4;}
	.st8{fill:#EECFC4;stroke:#D90E13;stroke-width:2;stroke-linecap:round;stroke-miterlimit:10;}
	.st9{fill:none;stroke:#E72320;stroke-width:2;stroke-linecap:round;stroke-miterlimit:10;}
	.st10{fill:#E72320;}
	.st11{fill:none;stroke:#D90E13;stroke-width:1.5;stroke-miterlimit:10;}
	.st12{fill:#2B5788;}
	.st13{fill:#7CA9C0;}
	.st14{fill:#FFFFFF;}
	.st15{fill:none;stroke:#292C60;stroke-width:2.5;stroke-miterlimit:10;}
	.st16{fill:none;stroke:#292C60;stroke-width:3;stroke-miterlimit:10;}
	.st17{fill:#7CA9C0;stroke:#292C60;stroke-width:2.5;stroke-miterlimit:10;}
	.st18{fill:#7CA9C0;stroke:#292C60;stroke-width:2.5;stroke-linecap:round;stroke-miterlimit:10;}
	.st19{fill:#292C60;}
	.st20{fill:none;stroke:#292C60;stroke-width:2.5;stroke-linecap:round;stroke-miterlimit:10;}
	.st21{fill:none;stroke:#292C60;stroke-width:3;stroke-linecap:round;stroke-linejoin:round;stroke-miterlimit:10;}
	.st22{fill:#FFFFFF;stroke:#292C60;stroke-width:2.5;stroke-linecap:round;stroke-linejoin:round;stroke-miterlimit:10;}
	.st23{fill:#6D7C7C;stroke:#686A69;stroke-width:4;stroke-linecap:round;stroke-linejoin:round;stroke-miterlimit:10;}
	.st24{fill:#788A8C;stroke:#686A69;stroke-width:4;stroke-miterlimit:10;}
	.st25{fill:#788A8C;stroke:#686A69;stroke-width:4;stroke-linecap:round;stroke-linejoin:round;stroke-miterlimit:10;}
	.st26{fill:none;stroke:#686A69;stroke-width:3;stroke-miterlimit:10;}
	.st27{fill:none;stroke:#686A69;stroke-width:3;stroke-linecap:round;stroke-miterlimit:10;}
	.st28{fill:#B3B69C;}
	.st29{fill:#788A8C;stroke:#686A69;stroke-width:3.9886;stroke-miterlimit:10;}
	.st30{fill:#788A8C;stroke:#686A69;stroke-width:3.5;stroke-linecap:round;stroke-miterlimit:10;}
	.st31{fill:#788A8C;stroke:#686A69;stroke-width:3;stroke-miterlimit:10;}
	.st32{fill:#D90E13;}
	.st33{fill:none;stroke:#D90E13;stroke-width:0.15;stroke-miterlimit:10;}
	.st34{fill:none;stroke:#D90E13;stroke-width:0.75;stroke-miterlimit:10;}
	.st35{fill:none;stroke:#D90E13;stroke-miterlimit:10;}
	.st36{fill:none;stroke:#D90E13;stroke-width:2;stroke-linecap:round;stroke-miterlimit:10;}
	.st37{fill:#EC8278;stroke:#E72320;stroke-width:2;stroke-linecap:round;stroke-miterlimit:10;}
	.st38{fill:#B1B4B4;}
	.st39{fill:none;stroke:#686A69;stroke-width:5.3621;stroke-linecap:round;stroke-miterlimit:10;}
	.st40{fill:#543B38;stroke:#111A19;stroke-width:5.1753;stroke-linecap:round;stroke-linejoin:round;stroke-miterlimit:10;}
	.st41{fill:none;stroke:#1B1A19;stroke-width:5.3625;stroke-miterlimit:10;}
	.st42{fill:#6D7C7C;stroke:#1B1A19;stroke-width:3.7288;stroke-linecap:round;stroke-linejoin:round;stroke-miterlimit:10;}
	.st43{fill:none;stroke:#1B1A19;stroke-width:5.4888;stroke-miterlimit:10;}
	.st44{fill:none;stroke:#686A69;stroke-width:5.3625;stroke-miterlimit:10;}
	.st45{fill:#9FA9A9;stroke:#686A69;stroke-width:3.7288;stroke-miterlimit:10;}
	.st46{fill:none;stroke:#686A69;stroke-width:2.7966;stroke-linecap:round;stroke-linejoin:round;stroke-miterlimit:10;}
	.st47{fill:#6D7C7C;stroke:#686A69;stroke-width:3.7288;stroke-linecap:round;stroke-linejoin:round;stroke-miterlimit:10;}
	.st48{fill:#13100B;}
	.st49{fill:#9A9894;}
	.st50{fill:#C29276;stroke:#686A69;stroke-width:1.8554;stroke-linecap:round;stroke-linejoin:round;stroke-miterlimit:10;}
	.st51{fill:#4D2C36;}
	.st52{fill:#686A69;}
	.st53{fill:none;stroke:#1B1A19;stroke-width:5.3625;stroke-linecap:round;stroke-linejoin:round;stroke-miterlimit:10;}
	.st54{fill:none;stroke:#D90E13;stroke-width:0.3032;stroke-miterlimit:10;}
	.st55{fill:none;stroke:#D90E13;stroke-width:1.5159;stroke-miterlimit:10;}
	.st56{fill:none;stroke:#D90E13;stroke-width:2.0212;stroke-miterlimit:10;}
	.st57{fill:#4D4040;}
	.st58{fill:#6D595E;}
	.st59{opacity:0.53;fill:#453E39;}
	.st60{fill:none;stroke:#686A69;stroke-width:3;stroke-linecap:round;stroke-linejoin:round;stroke-miterlimit:10;}
	.st61{fill:none;stroke:#686A69;stroke-width:5;stroke-linecap:round;stroke-linejoin:round;stroke-miterlimit:10;}
	.st62{fill:none;stroke:#686A69;stroke-width:4;stroke-linecap:round;stroke-linejoin:round;stroke-miterlimit:10;}
	.st63{fill:#9FA9A9;stroke:#686A69;stroke-width:3.4913;stroke-miterlimit:10;}
	.st64{fill:#48484A;stroke:#686A69;stroke-width:1.8376;stroke-linecap:round;stroke-linejoin:round;stroke-miterlimit:10;}
	.st65{fill:#606060;}
	.st66{fill:#9FA9A9;stroke:#686A69;stroke-width:2.8806;stroke-miterlimit:10;}
	.st67{fill:#9FA9A9;stroke:#686A69;stroke-width:2.7414;stroke-miterlimit:10;}
	.st68{fill:none;stroke:#686A69;stroke-width:2.6184;stroke-linecap:round;stroke-linejoin:round;stroke-miterlimit:10;}
	.st69{fill:#9FA9A9;}
	.st70{opacity:0.86;fill:#1F1F17;}
	.st71{opacity:0.21;fill:url(#SVGID_3_);}
	.st72{opacity:0.57;fill:#D1C7A2;}
	.st73{fill:#AC865E;}
	.st74{fill:#D6D8DE;}
	.st75{fill:#543B38;}
	.st76{fill:#734F41;}
	.st77{fill:#788A8C;}
	.st78{fill:#A1A9A6;}
	.st79{fill:none;stroke:#686A69;stroke-width:2.9876;stroke-miterlimit:10;}
	.st80{fill:#6D7C7C;stroke:#686A69;stroke-width:3.9835;stroke-linecap:round;stroke-linejoin:round;stroke-miterlimit:10;}
	.st81{fill:#788A8C;stroke:#686A69;stroke-width:3.5561;stroke-miterlimit:10;}
	.st82{fill:none;stroke:#545B5B;stroke-width:2.6076;stroke-linecap:round;stroke-linejoin:round;stroke-miterlimit:10;}
	.st83{fill:none;stroke:#686A69;stroke-width:5.9753;stroke-linecap:round;stroke-linejoin:round;stroke-miterlimit:10;}
	.st84{fill:none;stroke:#686A69;stroke-width:4.9794;stroke-linecap:round;stroke-linejoin:round;stroke-miterlimit:10;}
	.st85{fill:none;stroke:#686A69;stroke-width:5.9753;stroke-miterlimit:10;}
	.st86{fill:none;stroke:#1B1A19;stroke-width:5.1686;stroke-linecap:round;stroke-miterlimit:10;}
	.st87{fill:#E0D8D6;}
	.st88{fill:none;stroke:#111A19;stroke-width:4.9885;stroke-linecap:round;stroke-linejoin:round;stroke-miterlimit:10;}
	.st89{fill:#6D7C7C;stroke:#1B1A19;stroke-width:5.9753;stroke-linecap:round;stroke-linejoin:round;stroke-miterlimit:10;}
	.st90{fill:none;stroke:#1B1A19;stroke-width:5.9753;stroke-linecap:round;stroke-linejoin:round;stroke-miterlimit:10;}
	.st91{fill:#6D7C7C;}
	.st92{fill:#929A99;}
	.st93{fill:#9FA9A9;stroke:#686A69;stroke-width:3.4769;stroke-miterlimit:10;}
	.st94{fill:none;stroke:#686A69;stroke-width:3.4769;stroke-linecap:round;stroke-linejoin:round;stroke-miterlimit:10;}
	.st95{fill:#48484A;stroke:#686A69;stroke-width:1.9918;stroke-linecap:round;stroke-linejoin:round;stroke-miterlimit:10;}
	.st96{fill:#6D7C7C;stroke:#48484A;stroke-width:2.9876;stroke-miterlimit:10;}
	.st97{fill:#48484A;}
	.st98{opacity:0.72;}
	.st99{fill:none;stroke:#5B5B5B;stroke-width:5.7648;stroke-miterlimit:10;}
	.st100{opacity:0.49;}
	.st101{fill:#6D7C7C;stroke:#686A69;stroke-width:3.2152;stroke-linecap:round;stroke-linejoin:round;stroke-miterlimit:10;}
	.st102{fill:#788A8C;stroke:#686A69;stroke-width:3.2152;stroke-miterlimit:10;}
	.st103{fill:#788A8C;stroke:#686A69;stroke-width:3.2152;stroke-linecap:round;stroke-linejoin:round;stroke-miterlimit:10;}
	.st104{fill:none;stroke:#686A69;stroke-width:2.4114;stroke-miterlimit:10;}
	.st105{fill:none;stroke:#686A69;stroke-width:2.4114;stroke-linecap:round;stroke-miterlimit:10;}
	.st106{fill:#788A8C;stroke:#686A69;stroke-width:3.2061;stroke-miterlimit:10;}
	.st107{fill:#788A8C;stroke:#686A69;stroke-width:2.8133;stroke-linecap:round;stroke-miterlimit:10;}
	.st108{fill:#788A8C;stroke:#686A69;stroke-width:2.4114;stroke-miterlimit:10;}
	.st109{fill:#43383B;}
	.st110{fill:#B3B8BF;stroke:#686A69;stroke-width:2;stroke-miterlimit:10;}
	.st111{fill:#48484A;stroke:#686A69;stroke-width:0.5312;stroke-linecap:round;stroke-linejoin:round;stroke-miterlimit:10;}
	.st112{fill:none;stroke:#686A69;stroke-width:0.7969;stroke-miterlimit:10;}
	.st113{fill:#6D7C7C;stroke:#686A69;stroke-width:1.0625;stroke-linecap:round;stroke-linejoin:round;stroke-miterlimit:10;}
	.st114{fill:#9FA9A9;stroke:#686A69;stroke-width:0.9273;stroke-miterlimit:10;}
	.st115{fill:#788A8C;stroke:#686A69;stroke-width:0.9485;stroke-miterlimit:10;}
	.st116{fill:none;stroke:#545B5B;stroke-width:0.6955;stroke-linecap:round;stroke-linejoin:round;stroke-miterlimit:10;}
	.st117{fill:none;stroke:#686A69;stroke-width:1.5937;stroke-linecap:round;stroke-linejoin:round;stroke-miterlimit:10;}
	.st118{fill:none;stroke:#686A69;stroke-width:1.3281;stroke-linecap:round;stroke-linejoin:round;stroke-miterlimit:10;}
	.st119{fill:none;stroke:#686A69;stroke-width:1.5937;stroke-miterlimit:10;}
	.st120{fill:none;stroke:#1B1A19;stroke-width:1.3786;stroke-linecap:round;stroke-miterlimit:10;}
	.st121{fill:none;stroke:#111A19;stroke-width:1.3305;stroke-linecap:round;stroke-linejoin:round;stroke-miterlimit:10;}
	.st122{fill:#6D7C7C;stroke:#1B1A19;stroke-width:1.5937;stroke-linecap:round;stroke-linejoin:round;stroke-miterlimit:10;}
	.st123{fill:none;stroke:#1B1A19;stroke-width:1.5937;stroke-linecap:round;stroke-linejoin:round;stroke-miterlimit:10;}
	.st124{fill:none;stroke:#686A69;stroke-width:0.9273;stroke-linecap:round;stroke-linejoin:round;stroke-miterlimit:10;}
	.st125{fill:#6D7C7C;stroke:#48484A;stroke-width:0.7969;stroke-miterlimit:10;}
	.st126{fill:#788A8C;stroke:#686A69;stroke-width:3.5709;stroke-miterlimit:10;}
	.st127{fill:none;stroke:#545B5B;stroke-width:2.6184;stroke-linecap:round;stroke-linejoin:round;stroke-miterlimit:10;}
	.st128{fill:none;stroke:#686A69;stroke-width:6;stroke-linecap:round;stroke-linejoin:round;stroke-miterlimit:10;}
	.st129{fill:none;stroke:#686A69;stroke-width:6;stroke-miterlimit:10;}
	.st130{fill:none;stroke:#1B1A19;stroke-width:5.19;stroke-linecap:round;stroke-miterlimit:10;}
	.st131{fill:none;stroke:#111A19;stroke-width:5.0092;stroke-linecap:round;stroke-linejoin:round;stroke-miterlimit:10;}
	.st132{fill:#6D7C7C;stroke:#1B1A19;stroke-width:6;stroke-linecap:round;stroke-linejoin:round;stroke-miterlimit:10;}
	.st133{fill:none;stroke:#1B1A19;stroke-width:6;stroke-linecap:round;stroke-linejoin:round;stroke-miterlimit:10;}
	.st134{fill:none;stroke:#686A69;stroke-width:3.4913;stroke-linecap:round;stroke-linejoin:round;stroke-miterlimit:10;}
	.st135{fill:#48484A;stroke:#686A69;stroke-width:2;stroke-linecap:round;stroke-linejoin:round;stroke-miterlimit:10;}
	.st136{fill:#6D7C7C;stroke:#48484A;stroke-width:3;stroke-miterlimit:10;}
	.st137{fill:none;stroke:#686A69;stroke-width:1.0883;stroke-miterlimit:10;}
	.st138{fill:#6D7C7C;stroke:#686A69;stroke-width:1.4511;stroke-linecap:round;stroke-linejoin:round;stroke-miterlimit:10;}
	.st139{fill:#788A8C;stroke:#686A69;stroke-width:1.2954;stroke-miterlimit:10;}
	.st140{fill:none;stroke:#545B5B;stroke-width:0.9499;stroke-linecap:round;stroke-linejoin:round;stroke-miterlimit:10;}
	.st141{fill:none;stroke:#686A69;stroke-width:1.8139;stroke-linecap:round;stroke-linejoin:round;stroke-miterlimit:10;}
	.st142{fill:none;stroke:#686A69;stroke-width:2.1766;stroke-linecap:round;stroke-linejoin:round;stroke-miterlimit:10;}
	.st143{fill:none;stroke:#686A69;stroke-width:2.1766;stroke-miterlimit:10;}
	.st144{fill:none;stroke:#1B1A19;stroke-width:1.8828;stroke-linecap:round;stroke-miterlimit:10;}
	.st145{fill:none;stroke:#111A19;stroke-width:1.8172;stroke-linecap:round;stroke-linejoin:round;stroke-miterlimit:10;}
	.st146{fill:#6D7C7C;stroke:#1B1A19;stroke-width:2.1766;stroke-linecap:round;stroke-linejoin:round;stroke-miterlimit:10;}
	.st147{fill:none;stroke:#1B1A19;stroke-width:2.1766;stroke-linecap:round;stroke-linejoin:round;stroke-miterlimit:10;}
	.st148{fill:#9FA9A9;stroke:#686A69;stroke-width:1.2665;stroke-miterlimit:10;}
	.st149{fill:none;stroke:#686A69;stroke-width:1.2665;stroke-linecap:round;stroke-linejoin:round;stroke-miterlimit:10;}
	.st150{fill:#48484A;stroke:#686A69;stroke-width:0.7255;stroke-linecap:round;stroke-linejoin:round;stroke-miterlimit:10;}
	.st151{fill:#6D7C7C;stroke:#48484A;stroke-width:1.0883;stroke-miterlimit:10;}
	.st152{fill:none;stroke:#686A69;stroke-width:3.5894;stroke-linecap:round;stroke-linejoin:round;stroke-miterlimit:10;}
	.st153{fill:none;stroke:#686A69;stroke-width:2.8715;stroke-linecap:round;stroke-linejoin:round;stroke-miterlimit:10;}
	.st154{fill:#9FA9A9;stroke:#686A69;stroke-width:2.5063;stroke-miterlimit:10;}
	.st155{fill:#37313D;stroke:#686A69;stroke-width:1.2;stroke-linecap:round;stroke-linejoin:round;stroke-miterlimit:10;}
	.st156{fill:#606060;stroke:#454545;stroke-width:1.8767;stroke-miterlimit:10;}
	.st157{fill:#9FA9A9;stroke:#686A69;stroke-width:2.0679;stroke-miterlimit:10;}
	.st158{fill:#9FA9A9;stroke:#686A69;stroke-width:1.968;stroke-miterlimit:10;}
	.st159{fill:none;stroke:#686A69;stroke-width:1.8797;stroke-linecap:round;stroke-linejoin:round;stroke-miterlimit:10;}
	.st160{fill:none;stroke:#686A69;stroke-width:1.2566;stroke-linecap:round;stroke-miterlimit:10;}
	.st161{fill:#543B38;stroke:#111A19;stroke-width:1.2128;stroke-linecap:round;stroke-linejoin:round;stroke-miterlimit:10;}
	.st162{fill:none;stroke:#1B1A19;stroke-width:1.2567;stroke-miterlimit:10;}
	.st163{fill:#6D7C7C;stroke:#1B1A19;stroke-width:0.8738;stroke-linecap:round;stroke-linejoin:round;stroke-miterlimit:10;}
	.st164{fill:none;stroke:#1B1A19;stroke-width:1.2863;stroke-miterlimit:10;}
	.st165{fill:none;stroke:#686A69;stroke-width:1.2567;stroke-miterlimit:10;}
	.st166{fill:#9FA9A9;stroke:#686A69;stroke-width:0.8738;stroke-miterlimit:10;}
	.st167{fill:none;stroke:#686A69;stroke-width:0.6554;stroke-linecap:round;stroke-linejoin:round;stroke-miterlimit:10;}
	.st168{fill:#6D7C7C;stroke:#686A69;stroke-width:0.8738;stroke-linecap:round;stroke-linejoin:round;stroke-miterlimit:10;}
	.st169{fill:none;stroke:#1B1A19;stroke-width:1.2567;stroke-linecap:round;stroke-linejoin:round;stroke-miterlimit:10;}
	.st170{fill:#EECFC4;stroke:#D90E13;stroke-width:2.6971;stroke-miterlimit:10;}
	.st171{fill:#EC8278;stroke:#D90E13;stroke-width:1.1294;stroke-miterlimit:10;}
	.st172{fill:none;stroke:#D90E13;stroke-width:0.9282;stroke-linecap:round;stroke-miterlimit:10;}
	.st173{fill:#EECFC4;stroke:#D90E13;stroke-width:2.2916;stroke-miterlimit:10;}
	.st174{fill:#EECFC4;stroke:#D90E13;stroke-width:1.5228;stroke-miterlimit:10;}
	.st175{fill:#EECFC4;stroke:#D90E13;stroke-width:1.4503;stroke-miterlimit:10;}
	.st176{fill:none;stroke:#D90E13;stroke-width:0.7251;stroke-miterlimit:10;}
	.st177{fill:#EECFC4;stroke:#D90E13;stroke-width:2.9006;stroke-linecap:round;stroke-miterlimit:10;}
	.st178{fill:#D90E13;stroke:#D90E13;stroke-width:1.4503;stroke-miterlimit:10;}
	.st179{fill:none;stroke:#D90E13;stroke-width:2;stroke-miterlimit:10;}
	.st180{fill:none;stroke:#E8292F;stroke-width:3.4375;stroke-miterlimit:10;}
	.st181{fill:none;stroke:#E8292F;stroke-width:3.4375;stroke-linecap:round;stroke-miterlimit:10;}
	.st182{fill:#EECFC4;stroke:#D90E13;stroke-width:2.2916;stroke-linecap:round;stroke-miterlimit:10;}
	.st183{fill:none;stroke:#E72320;stroke-width:2.2916;stroke-linecap:round;stroke-miterlimit:10;}
	.st184{fill:none;stroke:#D90E13;stroke-linecap:round;stroke-miterlimit:10;}
	.st185{fill:none;stroke:#0A260B;stroke-width:0.801;stroke-miterlimit:10;}
	.st186{fill:#D90E13;stroke:#EECFC4;stroke-width:1.6018;stroke-miterlimit:10;}
	.st187{fill:#D90E13;stroke:#EECFC4;stroke-width:2;stroke-miterlimit:10;}
	.st188{fill:none;stroke:#E20000;stroke-width:1.3929;stroke-miterlimit:10;}
	.st189{fill:none;stroke:#EECFC4;stroke-width:0.75;stroke-linecap:round;stroke-miterlimit:10;}
	.st190{fill:#EECFC4;stroke:#D90E13;stroke-width:1.1697;stroke-miterlimit:10;}
	.st191{fill:#EECFC4;stroke:#D90E13;stroke-width:0.5848;stroke-miterlimit:10;}
	.st192{fill:none;stroke:#D90E13;stroke-width:0.2375;stroke-miterlimit:10;}
	.st193{fill:none;stroke:#D90E13;stroke-width:1.1876;stroke-miterlimit:10;}
	.st194{fill:none;stroke:#D90E13;stroke-width:1.5834;stroke-miterlimit:10;}
	.st195{fill:#EECFC4;stroke:#D90E13;stroke-width:1.6573;stroke-miterlimit:10;}
	.st196{fill:#EECFC4;stroke:#D90E13;stroke-width:1.1524;stroke-miterlimit:10;}
	.st197{fill:#EECFC4;stroke:#D90E13;stroke-width:1.1306;stroke-miterlimit:10;}
	.st198{fill:#EECFC4;stroke:#D90E13;stroke-width:1.0575;stroke-miterlimit:10;}
	.st199{fill:#D90E13;stroke:#D90E13;stroke-width:0.8097;stroke-miterlimit:10;}
	.st200{fill:#EECFC4;stroke:#D90E13;stroke-width:0.705;stroke-miterlimit:10;}
	.st201{fill:#EECFC4;stroke:#D90E13;stroke-width:0.8791;stroke-miterlimit:10;}
	.st202{fill:#EECFC4;stroke:#D90E13;stroke-width:0.687;stroke-miterlimit:10;}
	.st203{fill:#EECFC4;stroke:#D90E13;stroke-width:0.9274;stroke-miterlimit:10;}
	.st204{fill:#EECFC4;stroke:#D90E13;stroke-width:1.2456;stroke-linejoin:round;stroke-miterlimit:10;}
	.st205{fill:#EECFC4;stroke:#D90E13;stroke-width:1.2456;stroke-miterlimit:10;}
	.st206{fill:none;stroke:#D90E13;stroke-width:0.8304;stroke-miterlimit:10;}
	.st207{fill:#EECFC4;stroke:#D90E13;stroke-width:0.8304;stroke-linecap:round;stroke-linejoin:round;stroke-miterlimit:10;}
	.st208{fill:#EECFC4;stroke:#D90E13;stroke-width:0.8304;stroke-linejoin:round;stroke-miterlimit:10;}
	.st209{fill:#EECFC4;stroke:#D90E13;stroke-width:1.9574;stroke-linejoin:round;stroke-miterlimit:10;}
	.st210{fill:#EECFC4;stroke:#D90E13;stroke-width:2;stroke-linejoin:round;stroke-miterlimit:10;}
	.st211{fill:#EECFC4;stroke:#D90E13;stroke-width:1.3;stroke-linecap:round;stroke-linejoin:round;stroke-miterlimit:10;}
	.st212{fill:#EECFC4;stroke:#D90E13;stroke-width:1.3049;stroke-linejoin:round;stroke-miterlimit:10;}
	.st213{fill:#EECFC4;stroke:#D90E13;stroke-width:3;stroke-linejoin:round;stroke-miterlimit:10;}
	.st214{fill:none;stroke:#D90E13;stroke-width:0.4597;stroke-miterlimit:10;}
	.st215{fill:#EECFC4;stroke:#D90E13;stroke-width:2.0452;stroke-linejoin:round;stroke-miterlimit:10;}
	.st216{fill:#EECFC4;stroke:#D90E13;stroke-width:1.0226;stroke-miterlimit:10;}
	.st217{fill:#D90E13;stroke:#D90E13;stroke-width:2;stroke-miterlimit:10;}
	.st218{fill:#EECFC4;stroke:#D90E13;stroke-width:1.5;stroke-miterlimit:10;}
</style>
<g>
	<path class="st6" d="M159.5,112.2c5.8-4.2,7.9-10.3,5.5-16c-2.3-5.4-7.1-8.8-14.7-8.1c-2.7,0.2-4.9,2-4.9,2l3.7,4.5l1.5-0.4
		c3.6-0.9,7.1,0.5,8.5,3.9c1.5,3.5-0.3,7.6-4.5,9.3l1.4,6.8C155.9,114,158.6,112.8,159.5,112.2z"/>
	<path class="st6" d="M122.3,150.9c0,0-1.2,12.9,4.8,15.2c6,2.3,15.4-4.6,2.5-18.1L122.3,150.9z"/>
	<path class="st6" d="M65.3,151c0,0,1,12.9-5,15.1c-6,2.2-15.3-4.9-2.1-18.2L65.3,151z"/>
	<path class="st6" d="M43.6,70.6c0,0-8.5,7.2-0.4,15.9l3.6,6.7l27.4,6.7h42.2l26.3-9.9l-0.1-3.5c9.3-10.3-1.4-16.7-1.4-16.7
		l-20.5,7.9l-54,0.2L43.6,70.6z"/>
	<path class="st6" d="M43.2,86.5c-14.3,12.8-18.4,35.6-10.8,52.9c9.3,21.1,37.9,27.5,60.1,27.5c29.5,0,50-6.6,59.7-27.7
		c8.1-17.7,3.9-37.3-9.6-52.8c-8.7,7.7-27.2,11.7-51,11.4C69.2,97.6,49.9,93.2,43.2,86.5z"/>
	<path class="st6" d="M47.1,66.2c0,0-9.9,6.1,2.8,12.4c12.7,6.3,61.3,14.6,88.2-1c3-1.7,11.4-8.7-5.1-14.4
		C116.1,57.3,65.7,54.3,47.1,66.2z"/>
	<path class="st217" d="M55.8,65.9c-2.5,1.1-13.3,5,1.1,10.2c14.3,5.2,52.3,7.9,73.6-0.6c2.4-1,13.2-5.6-1.7-10.4
		C113.5,60.2,70.5,59.6,55.8,65.9z"/>
	<path class="st0" d="M132.9,74.4c0,0,0.6-1.3-1.7-1.5c-5.2-0.4-3.8-2.4-8.7-2.9c-1.5-0.2-3.6,0.6-6-0.4c-2.5-1.2-4.4-2.1-7.7-1.5
		c-2.2,0.4-3.2,1.5-7.4,0.2c-4.2-1.3-5.6,1.8-8,0c-2.3-1.8-6.3-1.8-8.5-0.3c-2,1.3-4.5,0.5-6,0.1c-2-0.6-4.3-0.5-6,0.7
		c-2.4,1.7-2.9,0.8-5.8,0.8s-2.3,1.6-6.1,1.5c-4.8-0.1-7.7,3-7.7,3s8.2,5.7,40.8,6.7C94.2,80.8,122,80.2,132.9,74.4z"/>
	<path class="st6" d="M68.7,164.4c0,0,0.6,13.3-5.4,15.5s-15.7-4.4-2.6-17.7L68.7,164.4z"/>
	<path class="st6" d="M118.8,164.4c0,0-0.6,13.3,5.4,15.5c6,2.2,15.7-4.4,2.6-17.7L118.8,164.4z"/>
	<path class="st6" d="M25.5,112.2c-5.8-4.2-7.9-10.3-5.5-16c2.3-5.4,7.1-8.8,14.7-8.1c2.7,0.2,4.9,2,4.9,2L36,94.5l-1.5-0.4
		c-3.6-0.9-7.1,0.5-8.5,3.9c-1.5,3.5,0.3,7.6,4.5,9.3l-1.4,6.8C29.1,114,26.4,112.8,25.5,112.2z"/>
	<path class="st32" d="M92.5,145.8c-27.2,0-54.9-6.5-63.2-17.2c-2.3-3,0.3-10.5,0.3-10.5c2.9,13.2,34,20.4,62.8,20.5
		c35,0.1,61-7.3,63.4-18c0,0,1,4.2,0.5,7.5c-0.2,1.1-0.1,2.2-0.7,3C147.8,141.4,116.5,145.8,92.5,145.8z"/>
	<g>
		<g>
			<path class="st32" d="M39.7,94.8c-2.5,2.5-5,7.3-5.2,10.8c0,0.7,1.1,1,1.4,0.4c0.7-1.6,1.1-3.3,1.7-5c0.8-2,1.9-3.7,2.8-5.7
				C40.6,94.9,40.1,94.4,39.7,94.8L39.7,94.8z"/>
		</g>
	</g>
	<g>
		<g>
			<path class="st32" d="M85.5,66.5c-2.7,0.7-6.1,3.8-4.8,6.8c0.2,0.4,0.6,0.1,0.7-0.2c0.2-1.4,0.6-2.7,1.6-3.7
				c0.8-0.9,2-1.5,2.9-2.3C86,66.8,85.8,66.4,85.5,66.5L85.5,66.5z"/>
		</g>
	</g>
	<g>
		<g>
			<path class="st32" d="M93.3,67.9c0.4,0.6,0.8,1.1,1.2,1.7c0.3,0.6,0.5,1.3,0.9,1.8c0.2,0.2,0.7,0.1,0.8-0.2
				c0.1-0.8-0.4-1.6-0.8-2.2c-0.5-0.7-1-1.2-1.7-1.5C93.4,67.4,93.1,67.7,93.3,67.9L93.3,67.9z"/>
		</g>
	</g>
	<g>
		<g>
			<path class="st32" d="M103.6,71.2c0.7-0.6,1.4-1.2,2.1-1.6c0.7-0.4,1.4-0.7,2-1.2c0.3-0.3,0-0.7-0.4-0.6
				c-0.8,0.1-1.7,0.7-2.4,1.1c-0.7,0.5-1.5,1-2.1,1.6C102.3,70.9,103,71.7,103.6,71.2L103.6,71.2z"/>
		</g>
	</g>
	<g>
		<g>
			<path class="st32" d="M115.2,68.5c0,0.4,0.2,0.5,0.5,0.7c0.3,0.3,0.6,0.6,0.9,1c0.5,0.7,0.4,1.7,0.9,2.4c0.1,0.2,0.4,0.2,0.5,0
				c0.6-0.8,0-2.2-0.5-2.9c-0.4-0.6-1.3-1.8-2.1-1.4C115.2,68.4,115.2,68.4,115.2,68.5L115.2,68.5z"/>
		</g>
	</g>
	<g>
		<g>
			<path class="st32" d="M98,76.2c1.5-1,2.7-2,4.6-1.5c1.7,0.4,2.7,1.8,3.1,3.4c0.2,0.9,1.5,0.5,1.3-0.4c-0.5-2-2.1-3.7-4.2-4.1
				c-1.9-0.4-4.5,0.3-5.3,2.2C97.4,76,97.7,76.4,98,76.2L98,76.2z"/>
		</g>
	</g>
	<g>
		<g>
			<path class="st32" d="M61.8,73.6c0.5-1,0.8-2,1.7-2.8c0.8-0.8,2-1.3,3.1-1.5c0.4-0.1,0.3-0.7-0.1-0.7c-1.4,0-2.6,0.5-3.6,1.6
				c-0.9,0.9-1.6,2.1-1.4,3.4C61.4,73.7,61.7,73.7,61.8,73.6L61.8,73.6z"/>
		</g>
	</g>
	<g>
		<g>
			<path class="st32" d="M68.5,69.6c0.9-0.2,1.9,0.2,2.5,0.7c0.3,0.2,0.5,0.5,0.7,0.9c0.2,0.4,0.2,0.8,0.4,1.2
				c0.2,0.4,0.8,0.3,0.9-0.1c0.3-1-0.7-2.2-1.5-2.8c-1-0.7-2.1-0.8-3.2-0.3C68.1,69.2,68.2,69.7,68.5,69.6L68.5,69.6z"/>
		</g>
	</g>
	<g>
		<g>
			<path class="st32" d="M73.8,76c0.2,0,0.2-0.2,0-0.2C73.6,75.8,73.6,76,73.8,76L73.8,76z"/>
		</g>
	</g>
	<g>
		<g>
			<path class="st32" d="M75.3,77.5c-0.1-2.5,3.8-4,5.8-3.8c1.8,0.1,4.6,2.2,4.2,4.3c-0.1,0.4,0.3,0.8,0.7,0.5c1.2-0.8,0.7-2,0-3.1
				c-1.1-1.6-2.6-2.7-4.6-2.8c-1.9-0.1-8.6,2.5-6.6,5.1C75,77.8,75.3,77.7,75.3,77.5L75.3,77.5z"/>
		</g>
	</g>
	<g>
		<g>
			<path class="st32" d="M113.1,75.8c2.7-3.3,5.7-3.4,9.1-1.1c0.4,0.2,0.7-0.3,0.5-0.6c-2.6-3-8.1-1.9-9.9,1.4
				C112.6,75.7,112.9,76,113.1,75.8L113.1,75.8z"/>
		</g>
	</g>
	<g>
		<g>
			<path class="st32" d="M107.4,72.6c-0.6,1.5,2.6,2.3,2.7,0.9c0-0.1-0.1-0.2-0.2-0.2c-0.4,0-0.7,0.3-1.2,0.1
				c-0.4-0.2-0.6-0.5-0.8-0.8C107.9,72.3,107.5,72.3,107.4,72.6L107.4,72.6z"/>
		</g>
	</g>
	<g>
		<g>
			<path class="st32" d="M91.4,78.7c1.2,0.1,2.5,0.5,3.7,0.1c0.3-0.1,0.3-0.5,0-0.6c-1.2-0.3-2.5,0-3.7,0.1
				C91.2,78.3,91.2,78.6,91.4,78.7L91.4,78.7z"/>
		</g>
	</g>
	<g>
		<g>
			<path class="st32" d="M67.8,74.9c0.7-0.1,1.4,0,2-0.2c0.2,0,0.1-0.3,0-0.3c-0.7,0-1.3,0.1-2,0.2C67.6,74.6,67.6,74.9,67.8,74.9
				L67.8,74.9z"/>
		</g>
	</g>
	<g>
		<g>
			<path class="st32" d="M124.7,74c0.3,0.1,0.6,0.3,0.7,0.6c0.2,0.3,0.2,0.5,0.3,0.8c0.2,0.3,0.6,0.2,0.6-0.2c0-0.7-0.9-1.3-1.5-1.6
				C124.6,73.6,124.5,74,124.7,74L124.7,74z"/>
		</g>
	</g>
	<g>
		<g>
			<path class="st32" d="M92.4,71.7c0.3,0.4,0.6,1,0.7,1.5c0.1,0.5,0,1,0,1.5c0,0.2,0.2,0.3,0.4,0.1c0.5-0.5,0.6-1.3,0.5-1.9
				c-0.1-0.8-0.6-1.3-1.3-1.6C92.4,71.2,92.2,71.5,92.4,71.7L92.4,71.7z"/>
		</g>
	</g>
	<circle class="st218" cx="95" cy="58" r="4.8"/>
	<circle class="st218" cx="107.4" cy="29.6" r="7.9"/>
	<circle class="st218" cx="131.8" cy="47.5" r="6"/>
	<circle class="st218" cx="58.3" cy="47.6" r="4.7"/>
	<path class="st218" d="M91.5,11.8l0.3-6c0,0-18.3-7.4-16.2,16.6c0,0-3.6,0.1-7.1,0.6v5.8h7.9L77,46.2h8.1V28.8h6.4v-6.5l-6.7-0.6
		C84.8,21.7,80.9,7.9,91.5,11.8z"/>
</g>
</svg>
