<?xml version="1.0" encoding="utf-8"?>
<!-- Generator: Adobe Illustrator 21.0.0, SVG Export Plug-In . SVG Version: 6.00 Build 0)  -->
<svg version="1.1" id="Layer_1" xmlns="http://www.w3.org/2000/svg" xmlns:xlink="http://www.w3.org/1999/xlink" x="0px" y="0px"
	 viewBox="0 0 185 185" style="enable-background:new 0 0 185 185;" xml:space="preserve">
<style type="text/css">
	.st0{fill:#EECFC4;stroke:#D90E13;stroke-width:3;stroke-linejoin:round;stroke-miterlimit:10;}
	.st1{fill:#EC8278;}
	.st2{fill:#B3B8BF;}
	.st3{fill:#5E1F38;}
	.st4{opacity:0.68;fill:#33252F;}
	.st5{fill:none;stroke:#E8292F;stroke-width:3;stroke-miterlimit:10;}
	.st6{fill:none;stroke:#E8292F;stroke-width:3;stroke-linecap:round;stroke-miterlimit:10;}
	.st7{fill:#EECFC4;stroke:#D90E13;stroke-width:2;stroke-miterlimit:10;}
	.st8{fill:#EECFC4;}
	.st9{fill:#EECFC4;stroke:#D90E13;stroke-width:2;stroke-linecap:round;stroke-miterlimit:10;}
	.st10{fill:none;stroke:#E72320;stroke-width:2;stroke-linecap:round;stroke-miterlimit:10;}
	.st11{fill:#E72320;}
	.st12{fill:none;stroke:#D90E13;stroke-width:1.5;stroke-miterlimit:10;}
	.st13{fill:#2B5788;}
	.st14{fill:#7CA9C0;}
	.st15{fill:#FFFFFF;}
	.st16{fill:none;stroke:#292C60;stroke-width:2.5;stroke-miterlimit:10;}
	.st17{fill:none;stroke:#292C60;stroke-width:3;stroke-miterlimit:10;}
	.st18{fill:#7CA9C0;stroke:#292C60;stroke-width:2.5;stroke-miterlimit:10;}
	.st19{fill:#7CA9C0;stroke:#292C60;stroke-width:2.5;stroke-linecap:round;stroke-miterlimit:10;}
	.st20{fill:#292C60;}
	.st21{fill:none;stroke:#292C60;stroke-width:2.5;stroke-linecap:round;stroke-miterlimit:10;}
	.st22{fill:none;stroke:#292C60;stroke-width:3;stroke-linecap:round;stroke-linejoin:round;stroke-miterlimit:10;}
	.st23{fill:#FFFFFF;stroke:#292C60;stroke-width:2.5;stroke-linecap:round;stroke-linejoin:round;stroke-miterlimit:10;}
	.st24{fill:#6D7C7C;stroke:#686A69;stroke-width:4;stroke-linecap:round;stroke-linejoin:round;stroke-miterlimit:10;}
	.st25{fill:#788A8C;stroke:#686A69;stroke-width:4;stroke-miterlimit:10;}
	.st26{fill:#788A8C;stroke:#686A69;stroke-width:4;stroke-linecap:round;stroke-linejoin:round;stroke-miterlimit:10;}
	.st27{fill:none;stroke:#686A69;stroke-width:3;stroke-miterlimit:10;}
	.st28{fill:none;stroke:#686A69;stroke-width:3;stroke-linecap:round;stroke-miterlimit:10;}
	.st29{fill:#B3B69C;}
	.st30{fill:#788A8C;stroke:#686A69;stroke-width:3.9886;stroke-miterlimit:10;}
	.st31{fill:#788A8C;stroke:#686A69;stroke-width:3.5;stroke-linecap:round;stroke-miterlimit:10;}
	.st32{fill:#788A8C;stroke:#686A69;stroke-width:3;stroke-miterlimit:10;}
	.st33{fill:#D90E13;}
	.st34{fill:none;stroke:#D90E13;stroke-width:0.15;stroke-miterlimit:10;}
	.st35{fill:none;stroke:#D90E13;stroke-width:0.75;stroke-miterlimit:10;}
	.st36{fill:none;stroke:#D90E13;stroke-miterlimit:10;}
	.st37{fill:none;stroke:#D90E13;stroke-width:2;stroke-linecap:round;stroke-miterlimit:10;}
	.st38{fill:#EC8278;stroke:#E72320;stroke-width:2;stroke-linecap:round;stroke-miterlimit:10;}
	.st39{fill:#B1B4B4;}
	.st40{fill:none;stroke:#686A69;stroke-width:5.3621;stroke-linecap:round;stroke-miterlimit:10;}
	.st41{fill:#543B38;stroke:#111A19;stroke-width:5.1753;stroke-linecap:round;stroke-linejoin:round;stroke-miterlimit:10;}
	.st42{fill:none;stroke:#1B1A19;stroke-width:5.3625;stroke-miterlimit:10;}
	.st43{fill:#6D7C7C;stroke:#1B1A19;stroke-width:3.7288;stroke-linecap:round;stroke-linejoin:round;stroke-miterlimit:10;}
	.st44{fill:none;stroke:#1B1A19;stroke-width:5.4888;stroke-miterlimit:10;}
	.st45{fill:none;stroke:#686A69;stroke-width:5.3625;stroke-miterlimit:10;}
	.st46{fill:#9FA9A9;stroke:#686A69;stroke-width:3.7288;stroke-miterlimit:10;}
	.st47{fill:none;stroke:#686A69;stroke-width:2.7966;stroke-linecap:round;stroke-linejoin:round;stroke-miterlimit:10;}
	.st48{fill:#6D7C7C;stroke:#686A69;stroke-width:3.7288;stroke-linecap:round;stroke-linejoin:round;stroke-miterlimit:10;}
	.st49{fill:#13100B;}
	.st50{fill:#9A9894;}
	.st51{fill:#C29276;stroke:#686A69;stroke-width:1.8554;stroke-linecap:round;stroke-linejoin:round;stroke-miterlimit:10;}
	.st52{fill:#4D2C36;}
	.st53{fill:#686A69;}
	.st54{fill:none;stroke:#1B1A19;stroke-width:5.3625;stroke-linecap:round;stroke-linejoin:round;stroke-miterlimit:10;}
	.st55{fill:none;stroke:#D90E13;stroke-width:0.3032;stroke-miterlimit:10;}
	.st56{fill:none;stroke:#D90E13;stroke-width:1.5159;stroke-miterlimit:10;}
	.st57{fill:none;stroke:#D90E13;stroke-width:2.0212;stroke-miterlimit:10;}
	.st58{fill:#4D4040;}
	.st59{fill:#6D595E;}
	.st60{opacity:0.53;fill:#453E39;}
	.st61{fill:none;stroke:#686A69;stroke-width:3;stroke-linecap:round;stroke-linejoin:round;stroke-miterlimit:10;}
	.st62{fill:none;stroke:#686A69;stroke-width:5;stroke-linecap:round;stroke-linejoin:round;stroke-miterlimit:10;}
	.st63{fill:none;stroke:#686A69;stroke-width:4;stroke-linecap:round;stroke-linejoin:round;stroke-miterlimit:10;}
	.st64{fill:#9FA9A9;stroke:#686A69;stroke-width:3.4913;stroke-miterlimit:10;}
	.st65{fill:#48484A;stroke:#686A69;stroke-width:1.8376;stroke-linecap:round;stroke-linejoin:round;stroke-miterlimit:10;}
	.st66{fill:#606060;}
	.st67{fill:#9FA9A9;stroke:#686A69;stroke-width:2.8806;stroke-miterlimit:10;}
	.st68{fill:#9FA9A9;stroke:#686A69;stroke-width:2.7414;stroke-miterlimit:10;}
	.st69{fill:none;stroke:#686A69;stroke-width:2.6184;stroke-linecap:round;stroke-linejoin:round;stroke-miterlimit:10;}
	.st70{fill:#9FA9A9;}
	.st71{opacity:0.86;fill:#1F1F17;}
	.st72{opacity:0.21;fill:url(#SVGID_3_);}
	.st73{opacity:0.57;fill:#D1C7A2;}
	.st74{fill:#AC865E;}
	.st75{fill:#D6D8DE;}
	.st76{fill:#543B38;}
	.st77{fill:#734F41;}
	.st78{fill:#788A8C;}
	.st79{fill:#A1A9A6;}
	.st80{fill:none;stroke:#686A69;stroke-width:2.9876;stroke-miterlimit:10;}
	.st81{fill:#6D7C7C;stroke:#686A69;stroke-width:3.9835;stroke-linecap:round;stroke-linejoin:round;stroke-miterlimit:10;}
	.st82{fill:#788A8C;stroke:#686A69;stroke-width:3.5561;stroke-miterlimit:10;}
	.st83{fill:none;stroke:#545B5B;stroke-width:2.6076;stroke-linecap:round;stroke-linejoin:round;stroke-miterlimit:10;}
	.st84{fill:none;stroke:#686A69;stroke-width:5.9753;stroke-linecap:round;stroke-linejoin:round;stroke-miterlimit:10;}
	.st85{fill:none;stroke:#686A69;stroke-width:4.9794;stroke-linecap:round;stroke-linejoin:round;stroke-miterlimit:10;}
	.st86{fill:none;stroke:#686A69;stroke-width:5.9753;stroke-miterlimit:10;}
	.st87{fill:none;stroke:#1B1A19;stroke-width:5.1686;stroke-linecap:round;stroke-miterlimit:10;}
	.st88{fill:#E0D8D6;}
	.st89{fill:none;stroke:#111A19;stroke-width:4.9885;stroke-linecap:round;stroke-linejoin:round;stroke-miterlimit:10;}
	.st90{fill:#6D7C7C;stroke:#1B1A19;stroke-width:5.9753;stroke-linecap:round;stroke-linejoin:round;stroke-miterlimit:10;}
	.st91{fill:none;stroke:#1B1A19;stroke-width:5.9753;stroke-linecap:round;stroke-linejoin:round;stroke-miterlimit:10;}
	.st92{fill:#6D7C7C;}
	.st93{fill:#929A99;}
	.st94{fill:#9FA9A9;stroke:#686A69;stroke-width:3.4769;stroke-miterlimit:10;}
	.st95{fill:none;stroke:#686A69;stroke-width:3.4769;stroke-linecap:round;stroke-linejoin:round;stroke-miterlimit:10;}
	.st96{fill:#48484A;stroke:#686A69;stroke-width:1.9918;stroke-linecap:round;stroke-linejoin:round;stroke-miterlimit:10;}
	.st97{fill:#6D7C7C;stroke:#48484A;stroke-width:2.9876;stroke-miterlimit:10;}
	.st98{fill:#48484A;}
	.st99{opacity:0.72;}
	.st100{fill:none;stroke:#5B5B5B;stroke-width:5.7648;stroke-miterlimit:10;}
	.st101{opacity:0.49;}
	.st102{fill:#6D7C7C;stroke:#686A69;stroke-width:3.2152;stroke-linecap:round;stroke-linejoin:round;stroke-miterlimit:10;}
	.st103{fill:#788A8C;stroke:#686A69;stroke-width:3.2152;stroke-miterlimit:10;}
	.st104{fill:#788A8C;stroke:#686A69;stroke-width:3.2152;stroke-linecap:round;stroke-linejoin:round;stroke-miterlimit:10;}
	.st105{fill:none;stroke:#686A69;stroke-width:2.4114;stroke-miterlimit:10;}
	.st106{fill:none;stroke:#686A69;stroke-width:2.4114;stroke-linecap:round;stroke-miterlimit:10;}
	.st107{fill:#788A8C;stroke:#686A69;stroke-width:3.2061;stroke-miterlimit:10;}
	.st108{fill:#788A8C;stroke:#686A69;stroke-width:2.8133;stroke-linecap:round;stroke-miterlimit:10;}
	.st109{fill:#788A8C;stroke:#686A69;stroke-width:2.4114;stroke-miterlimit:10;}
	.st110{fill:#43383B;}
	.st111{fill:#B3B8BF;stroke:#686A69;stroke-width:2;stroke-miterlimit:10;}
	.st112{fill:#48484A;stroke:#686A69;stroke-width:0.5312;stroke-linecap:round;stroke-linejoin:round;stroke-miterlimit:10;}
	.st113{fill:none;stroke:#686A69;stroke-width:0.7969;stroke-miterlimit:10;}
	.st114{fill:#6D7C7C;stroke:#686A69;stroke-width:1.0625;stroke-linecap:round;stroke-linejoin:round;stroke-miterlimit:10;}
	.st115{fill:#9FA9A9;stroke:#686A69;stroke-width:0.9273;stroke-miterlimit:10;}
	.st116{fill:#788A8C;stroke:#686A69;stroke-width:0.9485;stroke-miterlimit:10;}
	.st117{fill:none;stroke:#545B5B;stroke-width:0.6955;stroke-linecap:round;stroke-linejoin:round;stroke-miterlimit:10;}
	.st118{fill:none;stroke:#686A69;stroke-width:1.5937;stroke-linecap:round;stroke-linejoin:round;stroke-miterlimit:10;}
	.st119{fill:none;stroke:#686A69;stroke-width:1.3281;stroke-linecap:round;stroke-linejoin:round;stroke-miterlimit:10;}
	.st120{fill:none;stroke:#686A69;stroke-width:1.5937;stroke-miterlimit:10;}
	.st121{fill:none;stroke:#1B1A19;stroke-width:1.3786;stroke-linecap:round;stroke-miterlimit:10;}
	.st122{fill:none;stroke:#111A19;stroke-width:1.3305;stroke-linecap:round;stroke-linejoin:round;stroke-miterlimit:10;}
	.st123{fill:#6D7C7C;stroke:#1B1A19;stroke-width:1.5937;stroke-linecap:round;stroke-linejoin:round;stroke-miterlimit:10;}
	.st124{fill:none;stroke:#1B1A19;stroke-width:1.5937;stroke-linecap:round;stroke-linejoin:round;stroke-miterlimit:10;}
	.st125{fill:none;stroke:#686A69;stroke-width:0.9273;stroke-linecap:round;stroke-linejoin:round;stroke-miterlimit:10;}
	.st126{fill:#6D7C7C;stroke:#48484A;stroke-width:0.7969;stroke-miterlimit:10;}
	.st127{fill:#788A8C;stroke:#686A69;stroke-width:3.5709;stroke-miterlimit:10;}
	.st128{fill:none;stroke:#545B5B;stroke-width:2.6184;stroke-linecap:round;stroke-linejoin:round;stroke-miterlimit:10;}
	.st129{fill:none;stroke:#686A69;stroke-width:6;stroke-linecap:round;stroke-linejoin:round;stroke-miterlimit:10;}
	.st130{fill:none;stroke:#686A69;stroke-width:6;stroke-miterlimit:10;}
	.st131{fill:none;stroke:#1B1A19;stroke-width:5.19;stroke-linecap:round;stroke-miterlimit:10;}
	.st132{fill:none;stroke:#111A19;stroke-width:5.0092;stroke-linecap:round;stroke-linejoin:round;stroke-miterlimit:10;}
	.st133{fill:#6D7C7C;stroke:#1B1A19;stroke-width:6;stroke-linecap:round;stroke-linejoin:round;stroke-miterlimit:10;}
	.st134{fill:none;stroke:#1B1A19;stroke-width:6;stroke-linecap:round;stroke-linejoin:round;stroke-miterlimit:10;}
	.st135{fill:none;stroke:#686A69;stroke-width:3.4913;stroke-linecap:round;stroke-linejoin:round;stroke-miterlimit:10;}
	.st136{fill:#48484A;stroke:#686A69;stroke-width:2;stroke-linecap:round;stroke-linejoin:round;stroke-miterlimit:10;}
	.st137{fill:#6D7C7C;stroke:#48484A;stroke-width:3;stroke-miterlimit:10;}
	.st138{fill:none;stroke:#686A69;stroke-width:1.0883;stroke-miterlimit:10;}
	.st139{fill:#6D7C7C;stroke:#686A69;stroke-width:1.4511;stroke-linecap:round;stroke-linejoin:round;stroke-miterlimit:10;}
	.st140{fill:#788A8C;stroke:#686A69;stroke-width:1.2954;stroke-miterlimit:10;}
	.st141{fill:none;stroke:#545B5B;stroke-width:0.9499;stroke-linecap:round;stroke-linejoin:round;stroke-miterlimit:10;}
	.st142{fill:none;stroke:#686A69;stroke-width:1.8139;stroke-linecap:round;stroke-linejoin:round;stroke-miterlimit:10;}
	.st143{fill:none;stroke:#686A69;stroke-width:2.1766;stroke-linecap:round;stroke-linejoin:round;stroke-miterlimit:10;}
	.st144{fill:none;stroke:#686A69;stroke-width:2.1766;stroke-miterlimit:10;}
	.st145{fill:none;stroke:#1B1A19;stroke-width:1.8828;stroke-linecap:round;stroke-miterlimit:10;}
	.st146{fill:none;stroke:#111A19;stroke-width:1.8172;stroke-linecap:round;stroke-linejoin:round;stroke-miterlimit:10;}
	.st147{fill:#6D7C7C;stroke:#1B1A19;stroke-width:2.1766;stroke-linecap:round;stroke-linejoin:round;stroke-miterlimit:10;}
	.st148{fill:none;stroke:#1B1A19;stroke-width:2.1766;stroke-linecap:round;stroke-linejoin:round;stroke-miterlimit:10;}
	.st149{fill:#9FA9A9;stroke:#686A69;stroke-width:1.2665;stroke-miterlimit:10;}
	.st150{fill:none;stroke:#686A69;stroke-width:1.2665;stroke-linecap:round;stroke-linejoin:round;stroke-miterlimit:10;}
	.st151{fill:#48484A;stroke:#686A69;stroke-width:0.7255;stroke-linecap:round;stroke-linejoin:round;stroke-miterlimit:10;}
	.st152{fill:#6D7C7C;stroke:#48484A;stroke-width:1.0883;stroke-miterlimit:10;}
	.st153{fill:none;stroke:#686A69;stroke-width:3.5894;stroke-linecap:round;stroke-linejoin:round;stroke-miterlimit:10;}
	.st154{fill:none;stroke:#686A69;stroke-width:2.8715;stroke-linecap:round;stroke-linejoin:round;stroke-miterlimit:10;}
	.st155{fill:#9FA9A9;stroke:#686A69;stroke-width:2.5063;stroke-miterlimit:10;}
	.st156{fill:#37313D;stroke:#686A69;stroke-width:1.2;stroke-linecap:round;stroke-linejoin:round;stroke-miterlimit:10;}
	.st157{fill:#606060;stroke:#454545;stroke-width:1.8767;stroke-miterlimit:10;}
	.st158{fill:#9FA9A9;stroke:#686A69;stroke-width:2.0679;stroke-miterlimit:10;}
	.st159{fill:#9FA9A9;stroke:#686A69;stroke-width:1.968;stroke-miterlimit:10;}
	.st160{fill:none;stroke:#686A69;stroke-width:1.8797;stroke-linecap:round;stroke-linejoin:round;stroke-miterlimit:10;}
	.st161{fill:none;stroke:#686A69;stroke-width:1.2566;stroke-linecap:round;stroke-miterlimit:10;}
	.st162{fill:#543B38;stroke:#111A19;stroke-width:1.2128;stroke-linecap:round;stroke-linejoin:round;stroke-miterlimit:10;}
	.st163{fill:none;stroke:#1B1A19;stroke-width:1.2567;stroke-miterlimit:10;}
	.st164{fill:#6D7C7C;stroke:#1B1A19;stroke-width:0.8738;stroke-linecap:round;stroke-linejoin:round;stroke-miterlimit:10;}
	.st165{fill:none;stroke:#1B1A19;stroke-width:1.2863;stroke-miterlimit:10;}
	.st166{fill:none;stroke:#686A69;stroke-width:1.2567;stroke-miterlimit:10;}
	.st167{fill:#9FA9A9;stroke:#686A69;stroke-width:0.8738;stroke-miterlimit:10;}
	.st168{fill:none;stroke:#686A69;stroke-width:0.6554;stroke-linecap:round;stroke-linejoin:round;stroke-miterlimit:10;}
	.st169{fill:#6D7C7C;stroke:#686A69;stroke-width:0.8738;stroke-linecap:round;stroke-linejoin:round;stroke-miterlimit:10;}
	.st170{fill:none;stroke:#1B1A19;stroke-width:1.2567;stroke-linecap:round;stroke-linejoin:round;stroke-miterlimit:10;}
	.st171{fill:#EECFC4;stroke:#D90E13;stroke-width:2.6971;stroke-miterlimit:10;}
	.st172{fill:#EC8278;stroke:#D90E13;stroke-width:1.1294;stroke-miterlimit:10;}
	.st173{fill:none;stroke:#D90E13;stroke-width:0.9282;stroke-linecap:round;stroke-miterlimit:10;}
	.st174{fill:#EECFC4;stroke:#D90E13;stroke-width:2.2916;stroke-miterlimit:10;}
	.st175{fill:#EECFC4;stroke:#D90E13;stroke-width:1.5228;stroke-miterlimit:10;}
	.st176{fill:#EECFC4;stroke:#D90E13;stroke-width:1.4503;stroke-miterlimit:10;}
	.st177{fill:none;stroke:#D90E13;stroke-width:0.7251;stroke-miterlimit:10;}
	.st178{fill:#EECFC4;stroke:#D90E13;stroke-width:2.9006;stroke-linecap:round;stroke-miterlimit:10;}
	.st179{fill:#D90E13;stroke:#D90E13;stroke-width:1.4503;stroke-miterlimit:10;}
	.st180{fill:none;stroke:#D90E13;stroke-width:2;stroke-miterlimit:10;}
	.st181{fill:none;stroke:#E8292F;stroke-width:3.4375;stroke-miterlimit:10;}
	.st182{fill:none;stroke:#E8292F;stroke-width:3.4375;stroke-linecap:round;stroke-miterlimit:10;}
	.st183{fill:#EECFC4;stroke:#D90E13;stroke-width:2.2916;stroke-linecap:round;stroke-miterlimit:10;}
	.st184{fill:none;stroke:#E72320;stroke-width:2.2916;stroke-linecap:round;stroke-miterlimit:10;}
	.st185{fill:none;stroke:#D90E13;stroke-linecap:round;stroke-miterlimit:10;}
	.st186{fill:none;stroke:#0A260B;stroke-width:0.801;stroke-miterlimit:10;}
	.st187{fill:#D90E13;stroke:#EECFC4;stroke-width:1.0528;stroke-miterlimit:10;}
	.st188{fill:#D90E13;stroke:#EECFC4;stroke-width:1.2469;stroke-miterlimit:10;}
	.st189{fill:none;stroke:#E20000;stroke-width:0.9155;stroke-miterlimit:10;}
	.st190{fill:none;stroke:#EECFC4;stroke-width:0.4663;stroke-linecap:round;stroke-miterlimit:10;}
	.st191{fill:#EECFC4;stroke:#D90E13;stroke-width:1.1697;stroke-miterlimit:10;}
	.st192{fill:#EECFC4;stroke:#D90E13;stroke-width:0.5848;stroke-miterlimit:10;}
	.st193{fill:none;stroke:#D90E13;stroke-width:0.2375;stroke-miterlimit:10;}
	.st194{fill:none;stroke:#D90E13;stroke-width:1.1876;stroke-miterlimit:10;}
	.st195{fill:none;stroke:#D90E13;stroke-width:1.5834;stroke-miterlimit:10;}
	.st196{fill:#EECFC4;stroke:#D90E13;stroke-width:1.6573;stroke-miterlimit:10;}
	.st197{fill:#EECFC4;stroke:#D90E13;stroke-width:1.1524;stroke-miterlimit:10;}
	.st198{fill:#EECFC4;stroke:#D90E13;stroke-width:1.1306;stroke-miterlimit:10;}
	.st199{fill:#EECFC4;stroke:#D90E13;stroke-width:1.0575;stroke-miterlimit:10;}
	.st200{fill:#D90E13;stroke:#D90E13;stroke-width:0.8097;stroke-miterlimit:10;}
	.st201{fill:#EECFC4;stroke:#D90E13;stroke-width:0.705;stroke-miterlimit:10;}
	.st202{fill:#EECFC4;stroke:#D90E13;stroke-width:0.8791;stroke-miterlimit:10;}
	.st203{fill:#EECFC4;stroke:#D90E13;stroke-width:0.687;stroke-miterlimit:10;}
	.st204{fill:#EECFC4;stroke:#D90E13;stroke-width:0.9274;stroke-miterlimit:10;}
	.st205{fill:#EECFC4;stroke:#D90E13;stroke-width:1.2456;stroke-linejoin:round;stroke-miterlimit:10;}
	.st206{fill:#EECFC4;stroke:#D90E13;stroke-width:1.2456;stroke-miterlimit:10;}
	.st207{fill:none;stroke:#D90E13;stroke-width:0.8304;stroke-miterlimit:10;}
	.st208{fill:#EECFC4;stroke:#D90E13;stroke-width:0.8304;stroke-linecap:round;stroke-linejoin:round;stroke-miterlimit:10;}
	.st209{fill:#EECFC4;stroke:#D90E13;stroke-width:0.8304;stroke-linejoin:round;stroke-miterlimit:10;}
	.st210{fill:#EECFC4;stroke:#D90E13;stroke-width:1.9574;stroke-linejoin:round;stroke-miterlimit:10;}
	.st211{fill:#EECFC4;stroke:#D90E13;stroke-width:2;stroke-linejoin:round;stroke-miterlimit:10;}
	.st212{fill:#EECFC4;stroke:#D90E13;stroke-width:1.3;stroke-linecap:round;stroke-linejoin:round;stroke-miterlimit:10;}
	.st213{fill:#EECFC4;stroke:#D90E13;stroke-width:1.3049;stroke-linejoin:round;stroke-miterlimit:10;}
	.st214{fill:none;stroke:#D90E13;stroke-width:0.4315;stroke-miterlimit:10;}
	.st215{fill:#EECFC4;stroke:#D90E13;stroke-width:2.0452;stroke-linejoin:round;stroke-miterlimit:10;}
	.st216{fill:#EECFC4;stroke:#D90E13;stroke-width:1.0226;stroke-miterlimit:10;}
</style>
<g>
	<path class="st215" d="M84.8,115.5c0,0-0.1,4.7-2.1,9.5c-3,7-25.3,35.8-26.6,37.7c-1.3,1.9-6,5.2,5.6,15c3,2.5,5.6,4.8,14.7,5.2
		c9.1,0.3,29,0,29,0s7.5,0.2,11.8-1.1c4.5-1.3,8.8-4.1,13.5-10.4c1.7-2.3,4.7-4.3-2.1-12.4c0,0-22.5-27.6-25.3-34.9
		c-0.8-2.1-2-3.1-2-9.9c0-7.5,0-34,0-34c0.2-1.9,0.6-3.1,4.3-3.6c3.4-0.5,4-8.9-2.9-9.2c-7.1-0.3-13.2-0.9-20,0.2
		c-3.2,0.5-5.8,7.4-0.8,9.4c3.5,1.4,3.7,1.8,3.6,3.4C85.5,80.9,84.8,115.5,84.8,115.5z"/>
	<path class="st33" d="M67.8,152.1c0,0-5.5,6.9-7.9,10.3c-1.2,1.7-4.6,4.9-2.1,8.1c2.5,3.2,8.8,9.5,15.6,9.7
		c6.8,0.2,33.9,0.6,39.3,0c0,0,3.7-0.5,5.9-1.8c2.2-1.3,7.4-4.2,11-10.2c0,0,0.9-1.5-0.7-4.3c-1.6-2.8-9.1-11.8-9.1-11.8
		S90.1,153.5,67.8,152.1z"/>
	<g>
		<g>
			<path class="st33" d="M86.7,78.6c3.6,1.3,9.2,1.4,12.8,0c0.4-0.1,0.3-0.6-0.1-0.7c-2.1-0.1-4.2,0.3-6.3,0.3
				c-2.1,0-4.2-0.3-6.3-0.2C86.5,78,86.4,78.5,86.7,78.6L86.7,78.6z"/>
		</g>
	</g>
	<path class="st33" d="M86.7,58c0,0-1.5,8.8,1.6,15.1c0,0,4.7,2.3,10.5,0c0,0,2.4-9,1.5-15.1C100.3,58,92.2,56.3,86.7,58z"/>
	<g>
		<g>
			<path class="st8" d="M87.8,65.3c0,1.4,0.1,2.7,0.4,4c0.2,0.9,0.4,2.1,1.2,2.7c0.8,0.6,2.1,0.6,3,0.7c1.4,0.1,2.3,0,3.5-0.5
				c0.2-0.1,0.1-0.4-0.1-0.5c-1-0.4-1.3-0.4-2.3-0.5c-0.7,0-2.1,0.2-2.8-0.1c-1.8-0.8-2-4.1-2.3-5.8C88.5,64.8,87.9,64.9,87.8,65.3
				L87.8,65.3z"/>
		</g>
	</g>
	<g>
		<g>
			<path class="st33" d="M87.7,100.8c0.1,5.3-0.1,10.8-0.9,16c-0.2,1.3,1.7,1.5,1.7,0.2c0-5.4,0-10.8-0.3-16.3
				C88.2,100.5,87.7,100.5,87.7,100.8L87.7,100.8z"/>
		</g>
	</g>
	<g>
		<g>
			<path class="st33" d="M87.4,122.3c1.4,0,1.4-2.2,0-2.2C85.9,120.1,85.9,122.3,87.4,122.3L87.4,122.3z"/>
		</g>
	</g>
	<g>
		<g>
			<path class="st15" d="M76.8,162.7c0.1-0.2,0.2-0.4,0.3-0.6c0.2-0.5-0.2-1.2-0.7-1.3c-0.2-0.1-0.5-0.1-0.8-0.1
				c-1.1-0.1-1.7,1.2-1.2,2.1C74.9,163.6,76.2,163.6,76.8,162.7L76.8,162.7z"/>
		</g>
	</g>
	<g>
		<g>
			<path class="st15" d="M88.7,166.9c0.9,0,1.7-0.8,1.7-1.7c0-0.9-0.7-1.7-1.7-1.7c-0.9,0-1.7,0.8-1.7,1.7
				C87,166.1,87.7,166.9,88.7,166.9L88.7,166.9z"/>
		</g>
	</g>
	<g>
		<g>
			<path class="st15" d="M106.2,166.2C106.2,166.2,106.2,166.2,106.2,166.2C106.2,166.2,106.2,166.2,106.2,166.2L106.2,166.2z"/>
		</g>
	</g>
	<g>
		<g>
			<path class="st15" d="M113.9,170c0.3,0.1,0.7,0.1,1,0c0.9-0.3,0.9-1.5,0-1.8c-0.3-0.1-0.6-0.1-1,0C113,168.3,113,169.8,113.9,170
				L113.9,170z"/>
		</g>
	</g>
	<g>
		<g>
			<path class="st15" d="M99.5,161.5c0,0,0.1,0,0.1,0.1c1.5,0.6,3.1-0.9,3.1-2.4c0-1.5-1.6-2.9-3.1-2.4c0,0-0.1,0-0.1,0.1
				c-1,0.4-1.8,1.2-1.8,2.3C97.8,160.3,98.5,161.1,99.5,161.5L99.5,161.5z"/>
		</g>
	</g>
	<g>
		<g>
			<path class="st15" d="M101.7,172.3c0.8,0,0.8-1.3,0-1.3C100.9,171,100.9,172.3,101.7,172.3L101.7,172.3z"/>
		</g>
	</g>
	<g>
		<g>
			<path class="st15" d="M65.6,171.8c0.3,0.9,0.9,1.6,1.9,1.8c1,0.2,2-0.1,2.5-1.1c0.2-0.4,0.3-0.9,0.2-1.3c-0.2-0.5-0.2-0.5,0-0.1
				c0-0.2-0.1-0.4-0.2-0.5c-0.1-0.2-0.2-0.3-0.4-0.5c-0.5-0.4-0.6-0.4-0.2-0.2c-0.4-0.3-0.7-0.5-1.2-0.6c-0.7-0.2-1.5,0-2,0.5
				C65.6,170.3,65.3,171.2,65.6,171.8L65.6,171.8z"/>
		</g>
	</g>
	<g>
		<g>
			<path class="st15" d="M117.8,160c0.5,0.1,0.9,0.2,1.3-0.1c0.3-0.2,0.3-0.6,0-0.9c-0.4-0.3-0.9-0.2-1.3-0.1
				C117.3,159,117.3,159.9,117.8,160L117.8,160z"/>
		</g>
	</g>
	<g>
		<path class="st8" d="M118.5,25.5c-1.7-1.2-4.3-0.7-5.5,0.9c-1.2,1.7-0.9,4.3,0.8,5.5s4.2,1,5.5-0.6c0.7-0.9,1-2.2,0.7-3.3"/>
		<g>
			<path class="st33" d="M118.8,25c-4.2-3.3-9.4,2.1-6.7,6.5c1.1,1.8,3.7,2.7,5.7,1.7c1.8-1,3.4-3.2,2.5-5.3
				c-0.1-0.3-0.6-0.1-0.6,0.2c0.1,2.1-0.6,3.7-2.8,3.8c-1.3,0-2.6-0.4-3.2-1.7c-1.4-2.9,1.9-5.5,4.6-4.1
				C118.9,26.3,119.4,25.4,118.8,25L118.8,25z"/>
		</g>
	</g>
	<g>
		<path class="st8" d="M104.8,7c-1.2,0.9-1.4,3-0.3,4.1c1.1,1.1,3.3,0.6,3.9-0.8s-0.8-3.3-2.3-3.1"/>
		<g>
			<path class="st33" d="M104.5,6.6c-1.3,0.9-1.9,2.6-1.2,4c0.6,1.3,2.2,2.1,3.5,1.4c0.7-0.4,1.3-0.4,1.8-1.1c0.4-0.6,0.5-1.3,0.4-2
				c-0.1-0.8-0.3-1.5-1-2c-0.6-0.4-1.5-0.6-2.2-0.2c-0.5,0.3-0.3,0.9,0.1,1.1c0.4,0.1,0.8,0.2,1.1,0.5c0.3,0.2,0.7,0.6,0.9,0.9
				c0.3,0.5,0.1,1.1-0.3,1.5c-0.4,0.4-0.7,0.6-1.3,0.6c-0.9-0.1-1.5-0.4-1.8-1.3c-0.3-0.9-0.1-1.9,0.6-2.5
				C105.6,7,105.1,6.2,104.5,6.6L104.5,6.6z"/>
		</g>
	</g>
	<g>
		<path class="st8" d="M69.3,19.8c-1.8,0.6-2.9,2.9-2.3,4.7c0.7,1.8,2.9,2.9,4.8,2.2c2.3-0.9,3.1-4.2,1.5-6.1
			c-1.6-1.9-4.9-1.9-6.5-0.1"/>
		<g>
			<path class="st33" d="M69.2,19.5c-2.8,0.8-4.3,3.9-2.4,6.4c1.7,2.3,5.3,2.6,7.1,0.3c1.7-2.1,1.5-5.4-0.6-7.1
				c-1.9-1.5-6.6-1.8-7.2,1.2c-0.1,0.5,0.3,1,0.9,0.9c1.5-0.3,2.8-1.2,4.4-0.7c1.7,0.6,2.4,2.4,1.6,3.9c-0.8,1.8-3,2.1-4.4,0.8
				c-1.5-1.4-0.8-4.3,0.9-5.2C69.7,19.9,69.5,19.4,69.2,19.5L69.2,19.5z"/>
		</g>
	</g>
	<path class="st216" d="M65.1,41.1c0.7-0.4,0.9-1.1,1.5-2.7c0.5-1.5,0.9,2.1,1.4,2.6c0.6,0.6,1.8,0.4,3.3,0.7c1.2,0.3-2,1.5-2.2,2
		c-0.2,0.7,1,1.8,1,2.8s-2.4-1.5-3.3-1.4c-0.9,0-3.2,2.7-3.2,1.6c0-1.5,1.3-2.5,0.4-3.3c-0.9-0.8-3.1-1.7-2-1.9
		C63.6,41.3,64.4,41.5,65.1,41.1z"/>
	<path class="st216" d="M85.2,7.1c1.1-0.6,1.5-1.9,2.4-4.4c0.8-2.5,1.5,3.5,2.3,4.3c1,1,2.9,0.6,5.4,1.2c2,0.5-3.3,2.5-3.5,3.3
		c-0.3,1.2,1.7,2.9,1.7,4.6s-3.9-2.4-5.4-2.4c-1.5,0-5.3,4.4-5.3,2.6c0-2.5,2.1-4.1,0.6-5.4c-1.5-1.4-5.1-2.7-3.3-3.1
		C82.7,7.4,84.1,7.7,85.2,7.1z"/>
	<path class="st216" d="M97.4,38.2c-0.3,0.8,0,1.7,0.6,3.4c0.6,1.7-2.3-1.3-3.2-1.4c-1-0.1-1.9,0.9-3.5,1.7
		c-1.3,0.6,0.7-2.8,0.5-3.3c-0.3-0.8-2.2-0.9-2.9-1.8c-0.7-0.9,3.2-0.4,4-1.1c0.8-0.7,1-4.7,1.8-3.7c1.1,1.3,0.6,3.1,2,3.2
		s3.9-0.7,3.1,0.2C98.6,36.9,97.8,37.3,97.4,38.2z"/>
</g>
</svg>
